/* XPM */
static char *result[] = {
/* columns rows colors chars-per-pixel */
"64 64 110 2 ",
"   c black",
".  c #1C0F02",
"X  c #1D1002",
"o  c #181818",
"O  c #281603",
"+  c #2F1A04",
"@  c #301B04",
"#  c #3F3F3F",
"$  c #6F3E0A",
"%  c #713F0A",
"&  c #74400A",
"*  c #7D460A",
"=  c #584C3F",
"-  c gray30",
";  c #5B4E40",
":  c gray32",
">  c #626262",
",  c #717171",
"<  c #8A4C0B",
"1  c #92510B",
"2  c #AD5F0C",
"3  c #AE600C",
"4  c #B76611",
"5  c #B86711",
"6  c #BF6B11",
"7  c #C06A0F",
"8  c #C46D11",
"9  c #C77013",
"0  c #CD7212",
"q  c #C7741C",
"w  c #D27512",
"e  c #D77814",
"r  c #DB7B14",
"t  c #D37919",
"y  c #E37F15",
"u  c #CC7B25",
"i  c #E68015",
"p  c #EA8315",
"a  c #F28715",
"s  c #F58916",
"d  c #FF8E17",
"f  c #FF8F18",
"g  c #FF9119",
"h  c #CD802E",
"j  c #D1812C",
"k  c #CD8537",
"l  c #CD8639",
"z  c #FF9525",
"x  c #FF992D",
"c  c #ED9334",
"v  c #FF9F3A",
"b  c #FFA13D",
"n  c #CD8941",
"m  c #CD904E",
"M  c #D89C5C",
"N  c #E49847",
"B  c #FEA241",
"V  c #FEA74C",
"C  c #FFAD57",
"Z  c #CD9B66",
"A  c #CCA274",
"S  c #CCA57C",
"D  c #FFB362",
"F  c #FFBE79",
"G  c #FFC07D",
"H  c #929292",
"J  c gray67",
"K  c gray",
"L  c #D7B189",
"P  c #DDB68B",
"I  c #CEB497",
"U  c #CCB59B",
"Y  c #F3BE87",
"T  c #CDBAA6",
"R  c #CEBEAD",
"E  c #FFC383",
"W  c #FFC68A",
"Q  c #FFC98F",
"!  c #EDC191",
"~  c #E6C29B",
"^  c #F5C491",
"/  c #FACD9E",
"(  c #FFD09F",
")  c #D1C1AF",
"_  c #CEC5BC",
"`  c #E1C7AD",
"'  c #FFD3A6",
"]  c #FFD8AE",
"[  c gray81",
"{  c #D6CCC1",
"}  c #D0CFCF",
"|  c #DDD3C8",
" . c #D6D5D4",
".. c #DBDCDC",
"X. c #E1D1C1",
"o. c #E1D7CC",
"O. c #FFE1C3",
"+. c #FFE5CA",
"@. c #F6E5D5",
"#. c #FFEAD4",
"$. c #FFEFDE",
"%. c #DDDFE0",
"&. c #E4E5E5",
"*. c #EDEDED",
"=. c #FFF1E4",
"-. c #FFF4EA",
";. c #F4F4F5",
":. c #FEF9F5",
">. c #FFFFFF",
",. c None",
/* pixels */
",.,.,.,.,.,.,.,.,.,.,.,.,.,.,.,.,.,.,.,.,.,.,.,.,.,.,.,.,.,.,.,.,.,.,.,.,.,.,.,.,.,.,.,.,.,.,.,.,.,.,.,.,.,.,.,.,.,.,.,.,.,.,.,.",
",.,.,.,.,.,.,.,.,.,.,.,.,.,.,.,.,.,.,.,.,.,.,.,.,.,.,.,.,.,.,.,.,.,.,.,.,.,.,.,.,.,.,.,.,.,.,.,.,.,.,.,.,.,.,.,.,.,.,.,.,.,.,.,.",
",.,.,.,.,.,.,.,.,.,.,.,.,.,.,.,.,.,.,.,.,.,.,.,.,.,.,.,.,.,.,.,.,.,.,.,.,.,.,.,.,.,.,.,.,.,.,.,.,.,.,.,.,.,.,.,.,.,.,.,.,.,.,.,.",
",.,.,.,.,.,.,.,.,.,.,.,.,.,.,.,.,.,.,.,.,.,.,.,.,.,.,.,.,.,.,.,.,.,.,.,.,.,.,.,.,.,.,.,.,.,.,.,.,.,.,.,.,.,.,.,.,.,.,.,.,.,.,.,.",
",.,.,.,.,.,.,.,.,.,.,.,.,.,.,.,.,.,.,.,.,.,.,.,.,.,.,.,.,.,.,.,.,.,.,.,.,.,.,.,.,.,.,.,.,.,.,.,.,.,.,.,.,.,.,.,.,.,.,.,.,.,.,.,.",
",.,.,.,.,.,.,.,.,.,.,.,.,.,.,.,.,.,.,.,.,.,.,.,.,.,.,.,.,.,.,.,.,.,.,.,.,.,.,.,.,.,.,.,.,.,.,.,.,.,.,.,.,.,.,.,.,.,.,.,.,.,.,.,.",
",.,.,.,.,.,.,.,.,.,.,.,.,.,.,.,.,.,.,.,.,.,.,.,.,.,.,.,.,.,.,.,.,.,.,.,.,.,.,.,.,.,.,.,.,.,.,.,.,.,.,.,.,.,.,.,.,.,.,.,.,.,.,.,.",
",.,.,.,.,.,.,.,.,.,.,.,.,.,.,.,.,.,.,.,.,.,.,.,.,.,.,.,.,.,.,.,.,.,.,.,.,.,.,.,.,.,.,.,.,.,.,.,.,.,.,.,.,.,.,.,.,.,.,.,.,.,.,.,.",
",.,.,.,.,.,.,.,.,.,.,.,.,.,.,.,.,.,.,.,.,.,.,.,.,.,.,.,.,.,.,.,.,.,.,.,.,.,.,.,.,.,.,.,.,.,.,.,.,.,.,.,.,.,.,.,.,.,.,.,.,.,.,.,.",
",.,.,.,.,.,.,.,.,.,.,.,.,.,.,.,.,.,.,.,.,.,.,.,.,.,.,.,.,.,.,.,.,.,.,.,.,.,.,.,.,.,.,.,.,.,.,.,.,.,.,.,.,.,.,.,.,.,.,.,.,.,.,.,.",
",.,.,.,.,.,.,.,.,.,.,.,.,.,.,.,.,.,.,.,.,.,.,.,.,.,.,.,.,.,.,.,.,.,.,.,.,.,.,.,.,.,.,.,.,.,.,.,.,.,.,.,.,.,.,.,.,.,.,.,.,.,.,.,.",
",.,.,.,.,.,.,.,.,.,.,.,.,.,.,.,.,.,.,.,.,.,.,.,.,.,.,.,.,.,.,.,.,.,.,.,.,.,.,.,.,.,.,.,.,.,.,.,.,.,.,.,.,.,.,.,.,.,.,.,.,.,.,.,.",
",.,.,.,.,.,.,.,.,.,.,.,.,.,.,.,.,.,.,.,.,.,.,.,.,.,.,.,.,.,.,.,.,.,.,.,.,.,.,.,.,.,.,.,.,.,.,.,.,.,.,.,.,.,.,.,.,.,.,.,.,.,.,.,.",
",.,.,.,.,.,.,.,.,.,.,.,.,.,.,.,.,.,.,.,.,.,.,.,.,.,.,.,.,.,.,.,.,.,.,.,.,.,.,.,.,.,.,.,.,.,.,.,.,.,.,.,.,.,.,.,.,.,.,.,.,.,.,.,.",
",.,.,.,.,.,.,.,.,.,.,.,.,.,.,.,.,.,.,.,.,.,.,.,.,.,.,.,.,.,.,.,.,.,.,.,.,.,.,.,.,.,.,.,.,.,.,.,.,.,.,.,.,.,.,.,.,.,.,.,.,.,.,.,.",
",.,.,.,.,.,.,.,.,.,.,.,.,.,.d d ,.,.,.,.,.,.,.,.,.,.,.,.,.,.,.,.,.,.,.,.,.,.,.,.,.,.,.,.,.,.,.,.d f ,.,.,.,.,.,.,.,.,.,.,.,.,.,.",
",.,.,.,.,.,.,.,.,.,.,.,.,.,.d f d d d d ,.,.,.,.,.,.,.,.,.,.,.,.,.,.,.,.,.,.,.,.,.,.,.,.d d d d d f ,.,.,.,.,.,.,.,.,.,.,.,.,.,.",
",.,.,.,.,.,.,.,.,.,.,.,.,.,.,.d f f f f f d f ,.,.,.,.,.,.,.,.,.,.,.,.,.,.,.,.,.,.f d f f f f f d ,.,.,.,.,.,.,.,.,.,.,.,.,.,.,.",
",.,.,.,.,.,.,.,.,.,.,.,.,.,.,.d f f f f f f g d d f ,.,.,.,.,.,.,.,.,.,.,.,.d d g f f f f f f f d ,.,.,.,.,.,.,.,.,.,.,.,.,.,.,.",
",.,.,.,.,.,.,.,.,.,.,.,.,.,.,.f f f f f f f f f f f f d d d d d f d d d f d f f f f f f f f f f f ,.,.,.,.,.,.,.,.,.,.,.,.,.,.,.",
",.,.,.,.,.,.,.,.,.,.,.,.,.,.,.f d f f f f f f f f f d d d f f f f f d d f f f f f g f f f f f f d ,.,.,.,.,.,.,.,.,.,.,.,.,.,.,.",
",.,.,.,.,.,.,.,.,.,.,.,.,.,.,.,.d f f f f f f f f d d f d f f f f f f d d d d f f d f f f f f d ,.,.,.,.,.,.,.,.,.,.,.,.,.,.,.,.",
",.,.,.,.,.,.,.,.,.,.,.,.,.,.,.,.f f f f f f f f d d d f f f f f f f f f f d d d f f f f f f f d ,.,.,.,.,.,.,.,.,.,.,.,.,.,.,.,.",
",.,.,.,.,.,.,.,.,.,.,.,.,.,.,.,.d f f f f f d d d d f f f f f f f f f f f f d d d d f f f f f d ,.,.,.,.,.,.,.,.,.,.,.,.,.,.,.,.",
",.,.,.,.,.,.,.,.,.,.,.,.,.,.,.,.,.f f f f f d d f f f f f f f f f f f f g f f f f d d f f f f ,.,.,.,.,.,.,.,.=.$.,.,.,.,.,.,.,.",
",.,.,.,.,.,.,.,.,.,.,.,.,.,.,.,.,.d d d d f f f f d f g f d f f f g d f f f d f f d d f d f d ,.,.,.,.,.,.,.#.>.:.,.,.,.,.,.,.,.",
",.,.,.,.,.,.,.,.,.,.,.,.,.,.,.,.,.f f d d d f f f f e < e g f f f f f e < e f d f f d f d f p ,.,.,.,.,.,.,.-.>.>.-.,.,.,.,.,.,.",
",.,.,.,.,.,.,.,.,.,.,.,.,.,.,.,.,.d d f f f f f f f &   % d f f f f d %   & d g f f f f f d y ,.,.,.,.,.,.#.>.>.>.:.,.,.,.,.,.,.",
",.,.,.,.,.,.,.,.,.,.,.,.,.,.,.,.d f f f f f f f f i +   + p f f f f p +   + p g f f f f f f p 0 ,.,.,.,.,.-.>.>.>.>.=.,.,.,.,.,.",
",.,.,.,.,.,.,.,.,.,.,.,.,.,.,.,.d f f f f f f f g y .   X y g f f g y .   X i g f f f f f f s w ,.,.,.,.,.W O.=.=.O.E ,.,.,.,.,.",
",.,.,.,.,.,.,.,.,.,.,.,.,.,.,.d f f f f f f f f g y .   . y g f f f y .   . y g f f f f f f d e 0 ,.,.,.,.d z x x z f ,.,.,.,.,.",
",.,.,.,.,.,.,.,.,.,.,.,.,.,.,.d f f f f f f f f g y X   X y g d d g y X   X y g f f f f f f f r 0 ,.,.,.f d d d d d d ,.,.,.,.,.",
",.,.,.,.,.,.,.,.,.,.,.,.,.,.,.d f f f d f f f f g i @   @ i f f f f i +   + i g f f f f f f d r 0 ,.,.,.d g f f f f d ,.,.,.,.,.",
",.,.,.,.,.,.,.,.,.,.,.,.,.,.,.f f f f d f f f d f f &   & s g f f g g &   & d g d d f f f f f i 0 ,.,.f f f f f f f d ,.,.,.,.,.",
",.,.,.,.,.,.,.,.,.,.,.,.,.,.,.d f f d d f f d d g f 0 * 0 5 * < * * 5 w * 0 g g d d d d f f d i 0 i g f g d f f f f d ,.,.,.,.,.",
",.,.,.,.,.,.,.,.,.,.,.,.,.,.,.d f d d d d d d d d d f a i O         O i a d d d d d d d d d d y 0 i f f f f f f f d ,.,.,.,.,.,.",
",.,.,.,.,.,.,.,.,.,.,.,.,.,.,.d d f b F W W G D b x z g y .         . y g z x B D G W W F v d r 0 i f f f f g d d d ,.,.,.,.,.,.",
",.,.,.,.,.,.,.,.,.,.,.,.,.,.,.f d B #.>.>.>.>.:.-.#.O.] ^ ;         ; ^ ] O.#.-.:.>.>.>.>.#.v e 0 p f f f f g d f ,.,.,.,.,.,.,.",
",.,.,.,.,.,.,.,.,.,.,.,.,.,.,.d d Q >.>.>.>.>.>.>.>.>.>.>.[ : o o : [ >.>.>.>.>.>.>.>.>.>.>.Y 0 0 p f f f d d ,.,.,.,.,.,.,.,.,.",
",.,.,.,.,.,.,.,.,.,.,.,.,.,.,.d g ' >.>.>.>.>.>.>.>.>.>.*.:...K K &.:.*.>.>.>.>.>.>.>.>.>.>.~ 0 w s f f f ,.,.,.,.,.,.,.,.,.,.,.",
",.,.,.,.,.,.,.,.,.,.,.,.,.,.,.d g ( >.>.>.>.>.>.>.>.>.*.>  .>.>.>.>. .> *.>.>.>.>.>.>.>.>.>.L 0 w ,.,.,.,.,.,.,.,.,.,.,.,.,.,.,.",
",.,.,.,.,.,.,.,.,.,.,.,.,.,.,.d d E >.>.>.>.>.>.>.>.>.;., - J  . .J - , ;.>.>.>.>.>.>.>.>.&.Z 9 0 ,.,.,.,.,.,.,.,.,.,.,.,.,.,.,.",
",.,.,.,.,.,.,.,.,.,.,.,.,.,.,.,.d V =.>.>.>.>.>.>.>.>.>.*.H : # # : H *.>.>.>.>.>.>.>.>.;.{ l 0 ,.,.,.,.,.,.,.,.,.,.,.,.,.,.,.,.",
",.,.,.,.,.,.,.,.,.,.,.,.,.,.,.,.d g ' >.>.>.>.>.>.>.>.>.>.>.;.&.&.*.>.>.>.>.>.>.>.>.>.:. .L 0 0 ,.,.,.,.,.,.,.,.,.,.,.,.,.,.,.,.",
",.,.,.,.,.,.,.,.,.,.,.,.,.,.,.,.,.d b #.>.>.>.>.>.>.>.>.>.>.>.>.>.>.>.>.>.>.>.>.>.>.:.%.R u 0 ,.,.,.,.,.,.,.,.,.,.,.,.,.,.,.,.,.",
",.,.,.,.,.,.,.,.,.,.,.,.,.,.,.,.,.,.p C $.>.>.>.>.>.>.>.>.>.>.>.>.>.>.>.>.>.>.>.>.;...R n 8 ,.,.,.,.,.,.,.,.,.,.,.,.,.,.,.,.,.,.",
",.,.,.,.,.,.,.,.,.,.,.,.,.,.,.,.,.,.< y V +.>.>.>.>.>.>.>.>.>.>.>.>.>.>.>.>.>.>.*. .U l 9 * ,.,.,.,.,.,.,.,.,.,.,.,.,.,.,.,.,.,.",
",.,.,.,.,.,.,.,.,.,.,.,.,.,.,.,.,.,.,.* w c / -.>.>.>.>.>.>.>.>.>.>.>.>.>.:.*..._ S u 6 & ,.,.,.,.,.,.,.,.,.,.,.,.,.,.,.,.,.,.,.",
",.,.,.,.,.,.,.,.,.,.,.,.,.,.,.,.,.,.,.,.,.2 t N ! @.:.>.>.>.>.>.>.>.;.*.&.| R A l 9 2 ,.,.,.,.,.,.,.,.,.,.,.,.,.,.,.,.,.,.,.,.,.",
",.,.,.,.,.,.,.,.,.,.,.,.,.,.,.,.,.,.,.,.,.,.& 2 9 j M P ` ` | o.| { ) I S m u 9 3 & ,.,.,.,.,.,.,.,.,.,.,.,.,.,.,.,.,.,.,.,.,.,.",
",.,.,.,.,.,.,.,.,.,.,.,.,.,.,.,.,.,.,.,.,.,.,.,.,.1 2 6 q u u u u u u q 6 2 1 ,.,.,.,.,.,.,.,.,.,.,.,.,.,.,.,.,.,.,.,.,.,.,.,.,.",
",.,.,.,.,.,.,.,.,.,.,.,.,.,.,.,.,.,.,.,.,.,.,.,.,.,.,.,.,.* < < < < * ,.,.,.,.,.,.,.,.,.,.,.,.,.,.,.,.,.,.,.,.,.,.,.,.,.,.,.,.,.",
",.,.,.,.,.,.,.,.,.,.,.,.,.,.,.,.,.,.,.,.,.,.,.,.,.,.,.,.,.,.,.,.,.,.,.,.,.,.,.,.,.,.,.,.,.,.,.,.,.,.,.,.,.,.,.,.,.,.,.,.,.,.,.,.",
",.,.,.,.,.,.,.,.,.,.,.,.,.,.,.,.,.,.,.,.,.,.,.,.,.,.,.,.,.,.,.,.,.,.,.,.,.,.,.,.,.,.,.,.,.,.,.,.,.,.,.,.,.,.,.,.,.,.,.,.,.,.,.,.",
",.,.,.,.,.,.,.,.,.,.,.,.,.,.,.,.,.,.,.,.,.,.,.,.,.,.,.,.,.,.,.,.,.,.,.,.,.,.,.,.,.,.,.,.,.,.,.,.,.,.,.,.,.,.,.,.,.,.,.,.,.,.,.,.",
",.,.,.,.,.,.,.,.,.,.,.,.,.,.,.,.,.,.,.,.,.,.,.,.,.,.,.,.,.,.,.,.,.,.,.,.,.,.,.,.,.,.,.,.,.,.,.,.,.,.,.,.,.,.,.,.,.,.,.,.,.,.,.,.",
",.,.,.,.,.,.,.,.,.,.,.,.,.,.,.,.,.,.,.,.,.,.,.,.,.,.,.,.,.,.,.,.,.,.,.,.,.,.,.,.,.,.,.,.,.,.,.,.,.,.,.,.,.,.,.,.,.,.,.,.,.,.,.,.",
",.,.,.,.,.,.,.,.,.,.,.,.,.,.,.,.,.,.,.,.,.,.,.,.,.,.,.,.,.,.,.,.,.,.,.,.,.,.,.,.,.,.,.,.,.,.,.,.,.,.,.,.,.,.,.,.,.,.,.,.,.,.,.,.",
",.,.,.,.,.,.,.,.,.,.,.,.,.,.,.,.,.,.,.,.,.,.,.,.,.,.,.,.,.,.,.,.,.,.,.,.,.,.,.,.,.,.,.,.,.,.,.,.,.,.,.,.,.,.,.,.,.,.,.,.,.,.,.,.",
",.,.,.,.,.,.,.,.,.,.,.,.,.,.,.,.,.,.,.,.,.,.,.,.,.,.,.,.,.,.,.,.,.,.,.,.,.,.,.,.,.,.,.,.,.,.,.,.,.,.,.,.,.,.,.,.,.,.,.,.,.,.,.,.",
",.,.,.,.,.,.,.,.,.,.,.,.,.,.,.,.,.,.,.,.,.,.,.,.,.,.,.,.,.,.,.,.,.,.,.,.,.,.,.,.,.,.,.,.,.,.,.,.,.,.,.,.,.,.,.,.,.,.,.,.,.,.,.,.",
",.,.,.,.,.,.,.,.,.,.,.,.,.,.,.,.,.,.,.,.,.,.,.,.,.,.,.,.,.,.,.,.,.,.,.,.,.,.,.,.,.,.,.,.,.,.,.,.,.,.,.,.,.,.,.,.,.,.,.,.,.,.,.,.",
",.,.,.,.,.,.,.,.,.,.,.,.,.,.,.,.,.,.,.,.,.,.,.,.,.,.,.,.,.,.,.,.,.,.,.,.,.,.,.,.,.,.,.,.,.,.,.,.,.,.,.,.,.,.,.,.,.,.,.,.,.,.,.,.",
",.,.,.,.,.,.,.,.,.,.,.,.,.,.,.,.,.,.,.,.,.,.,.,.,.,.,.,.,.,.,.,.,.,.,.,.,.,.,.,.,.,.,.,.,.,.,.,.,.,.,.,.,.,.,.,.,.,.,.,.,.,.,.,."
};
