/* XPM */
static char *result[] = {
/* columns rows colors chars-per-pixel */
"64 64 11 1 ",
"  c #63A642",
". c #63A641",
"X c #61A443",
"o c #589E4C",
"O c #569C4E",
"+ c #579D4E",
"@ c #61A543",
"# c #60A444",
"$ c #599E4B",
"% c #589D4C",
"& c white",
/* pixels */
"                              .XoO++++++++++++++++++++++++++++++",
"                              .XoO++++++++++++++++++++++++++++++",
"                              .XoO++++++++++++++++++++++++++++++",
"                              .XoO++++++++++++++++++++++++++++++",
"                              .XoO++++++++++++++++++++++++++++++",
"                              .XoO++++++++++++++++++++++++++++++",
"                              .XoO++++++++++++++++++++++++++++++",
"                              .XoO++++++++++++++++++++++++++++++",
"                              .XoO++++++++++++++++++++++++++++++",
"                              .XoO++++++++++++++++++++++++++++++",
"                              .XoO++++++++++++++++++++++++++++++",
"                              .XoO++++++++++++++++++++++++++++++",
"                              .XoO++++++++++++++++++++++++++++++",
"                              .XoO++++++++++++++++++++++++++++++",
"                              .XoO++++++++++++++++++++++++++++++",
"                              .XoO++++++++++++++++++++++++++++++",
"                              .XoO++++++++++++++++++++++++++++++",
"                              .XoO++++++++++++++++++++++++++++++",
"                              .XoO++++++++++++++++++++++++++++++",
"                              .XoO++++++++++++++++++++++++++++++",
"                              .XoO++++++++++++++++++++++++++++++",
"                              .XoO++++++++++++++++++++++++++++++",
"                              .XoO++++++++++++++++++++++++++++++",
"                              .XoO++++++++++++++++++++++++++++++",
"                              .XoO++++++++++++++++++++++++++++++",
"                              .XoO++++++++++++++++++++++++++++++",
"                              .XoO++++++++++++++++++++++++++++++",
"                              .XoO++++++++++++++++++++++++++++++",
"                              .XoO++++++++++++++++++++++++++++++",
"                              .XoO++++++++++++++++++++++++++++++",
"...............................XoOOOOOOOOOOOOOOOOOOOOOOOOOOOOOOO",
"@@@@@@@@@@@@@@@@@@@@@@@@@@@@@@@#$%%%%%%%%%%%%%%%%%%%%%%%%%%%%%%%",
"%%%%%%%%%%%%%%%%%%%%%%%%%%%%%%%$#@@@@@@@@@@@@@@@@@@@@@@@@@@@@@@@",
"OOOOOOOOOOOOOOOOOOOOOOOOOOOOOOOoX...............................",
"++++++++++++++++++++++++++++++OoX.                              ",
"++++++++++++++++++++++++++++++OoX.                              ",
"++++++++++++++++++++++++++++++OoX.                              ",
"++++++++++++++++++++++++++++++OoX.                              ",
"++++++++++++++++++++++++++++++OoX.                              ",
"++++++++++++++++++++++++++++++OoX.                              ",
"++++++++++++++++++++++++++++++OoX.                              ",
"++++++++++++++++++++++++++++++OoX.                              ",
"++++++++++++++++++++++++++++++OoX.                              ",
"++++++++++++++++++++++++++++++OoX.                              ",
"++++++++++++++++++++++++++++++OoX.                              ",
"++++++++++++++++++++++++++++++OoX.                              ",
"++++++++++++++++++++++++++++++OoX.                              ",
"++++++++++++++++++++++++++++++OoX.                              ",
"++++++++++++++++++++++++++++++OoX.                              ",
"++++++++++++++++++++++++++++++OoX.                              ",
"++++++++++++++++++++++++++++++OoX.                              ",
"++++++++++++++++++++++++++++++OoX.                              ",
"++++++++++++++++++++++++++++++OoX.                              ",
"++++++++++++++++++++++++++++++OoX.                              ",
"++++++++++++++++++++++++++++++OoX.                              ",
"++++++++++++++++++++++++++++++OoX.                              ",
"++++++++++++++++++++++++++++++OoX.                              ",
"++++++++++++++++++++++++++++++OoX.                              ",
"++++++++++++++++++++++++++++++OoX.                              ",
"++++++++++++++++++++++++++++++OoX.                              ",
"++++++++++++++++++++++++++++++OoX.                              ",
"++++++++++++++++++++++++++++++OoX.                              ",
"++++++++++++++++++++++++++++++OoX.                              ",
"++++++++++++++++++++++++++++++OoX.                              "
};
