/* XPM */
static char *result[] = {
/* columns rows colors chars-per-pixel */
"64 64 89 1 ",
"  c #383532",
". c #383533",
"X c #393533",
"o c #393632",
"O c #383633",
"+ c #393633",
"@ c #393733",
"# c #3A3732",
"$ c #3A3633",
"% c #3A3733",
"& c #3B3733",
"* c #393634",
"= c #393734",
"- c #3A3734",
"; c #3B3734",
": c #3A3832",
"> c #3A3833",
", c #3B3833",
"< c #3A3834",
"1 c #3B3834",
"2 c #3B3835",
"3 c #3C3836",
"4 c #3C3936",
"5 c #3D3937",
"6 c #3D3A37",
"7 c #3E3A37",
"8 c #3F3C39",
"9 c #403E39",
"0 c #413E39",
"q c #413F39",
"w c #403D3A",
"e c #403E3A",
"r c #413E3A",
"t c #413E3B",
"y c #413F3B",
"u c #423F3A",
"i c #423F3B",
"p c #413E3C",
"a c #423E3C",
"s c #423F3C",
"d c #43403B",
"f c #46453A",
"g c #43403C",
"h c #44413C",
"j c #44423C",
"k c #45423C",
"l c #45433C",
"z c #45433D",
"x c #46433D",
"c c #46443D",
"v c #47443D",
"b c #47443E",
"n c #47453E",
"m c #49463B",
"M c #48473B",
"N c #48453D",
"B c #48463C",
"V c #48463E",
"C c #49463E",
"Z c #49473E",
"A c #4A473E",
"S c #4A473F",
"D c #49483C",
"F c #4A483C",
"G c #4A483D",
"H c #4B483D",
"J c #4B493D",
"K c #4B4A3D",
"L c #4A483E",
"P c #4B483E",
"I c #4B493E",
"U c #4B493F",
"Y c #4B4A3E",
"T c #4C4A3E",
"R c #4C4B3E",
"E c #4C4A3F",
"W c #4D4A3F",
"Q c #4C4B3F",
"! c #4D4B3F",
"~ c #4E4C3F",
"^ c #4D4B40",
"/ c #4E4B40",
"( c #4E4C40",
") c #4E4D40",
"_ c #4F4D40",
"` c #4F4C41",
"' c #4E4D41",
"] c #4F4D41",
"[ c None",
/* pixels */
"[[[[[[[[[[[[[[[[[[[[[[[[[[[[[[[[[[[[[[[[[[[[[[[[[[[[[[[[[[[[[[[[",
"[[[[[[[[[[[[[[[[[[[[[[[[[[[[[[[[[[[[[[[[[[[[[[[[[[[[[[[[[[[[[[[[",
"[[[[[[[[[[[[[[[[[[[[[[[[[[[[[[[[[[[[[[[[[[[[[[[[[[[[[[[[[[[[[[[[",
"[[[[[[[[[[[[[[[[[[[[[[[[[[[[[[[[[[[[[[[[[[[[[[[[[[[[[[[[[[[[[[[[",
"[[[[[[[[[[[[[[[[[[[[[[[[[[[[[[[[[[[[[[[[[[[[[[[[[[[[[[[[[[[[[[[[",
"[[[[[[[[[[[[[[[[[[[[[[[[[[[[[[[[[[[[[[[[[[[[[[[[[[[[[[[[[[[[[[[[",
"[[[[[[[[[[[[[[[[[[[[[[[[[[[[[[[[[[[[[[[[[[[[[[[[[[[[[[[[[[[[[[[[",
"[[[[[[[[[[[[[[[[[[[[[[[[[[fBGYW(WYGBf[[[[[[[[[[[[[[[[[[[[[[[[[[[",
"[[[[[[[[[[[[[[[[[[[[[[[D!(((((((((((((!D[[[[[[[[[[[[[[[[[[[[[[[[",
"[[[[[[[[[[[[[[[[[[[[m((((]]]]]]]]]]]]]((((M[[[[[[[[[[[[[[[[[[[[[",
"[[[[[[[[[[[[[[[[[[[Q((]]]]]]]]]]]]]]]]]]]((![[[[[[[[[[[[[[[[[[[[",
"[[[[[[[[[[[[[[[[[J((]]]]]]]]]]]]]]]]]]]]]]]((J[[[[[[[[[[[[[[[[[[",
"[[[[[[[[[[[[[[[[!((]]]]]]]]]]]]]]]]]]]]]]]]]((![[[[[[[[[[[[[[[[[",
"[[[[[[[[[[[[[[G((]]]]]]]]]]]]]]]]]]]]]]]]]]]]]((F[[[[[[[[[[[[[[[",
"[[[[[[[[[[[[[T((]]]]]]]]]]]]]]]]]]]]]]]]]]]]]]]`(K[[[[[[[[[[[[[[",
"[[[[[[[[[[[[J(]]]]]]]]]]]]]]]]]]]]]]]]]]]]]]]]]]](I[[[[[[[[[[[[[",
"[[[[[[[[[[[H(]]]]]]]]]]]]]]]]]]]]]]]]]]]]]]]]]]]]](J[[[[[[[[[[[[",
"[[[[[[[[[[[(]]]]]]]]]]]]]]]]]]]]]]]]]]]]]]]]]]]]]]]^[[[[[[[[[[[[",
"[[[[[[[[[[!']]]]]]]]]]]]]]]]]]]]]]]]]]]]]]]]]]]]]]](![[[[[[[[[[[",
"[[[[[[[[[T(]]]]]]]]]]]]]]]]]]]]]]]]]]]]]]]]]]]]]]]]](T[[[[[[[[[[",
"[[[[[[[[[(]]]]]]]]]]]]]]]]]]]]]]]]]]]]]]]]]]]]]]]]]]]([[[[[[[[[[",
"[[[[[[[[E]]]]]]]]]]]]]]]]]]]]]]]]]]]]]]]]]]]]]]]]]]]]]E[[[[[[[[[",
"[[[[[[[[(]]]]]]]]]]]]]]]]]]]]]]]]]]]]]]]]]]]]]]]]]]]]]([[[[[[[[[",
"[[[[[[[W_]]]]]]]]]]]]]]]]]]]]]]]]]]]]]]]]]]]]]]]]]]]]]]R[[[[[[[[",
"[[[[[[[/]]]]]]]]]]]]]]]](((((((((((((((]]]]]]]]]]]]]]]]~[[[[[[[[",
"[[[[[[[(]]]]]]]]]]]]](((^LnxkhgsghkxnS^(((]]]]]]]]]]]]]([[[[[[[[",
"[[[[[[Q]]]]]]]]]]]]((!ZzdsssssspssssssdzC!((]]]]]]]]]]]]Q[[[[[[[",
"[[[[[[!]]]]]]]]]]((!NgssisssssssssssssissgN!((]]]]]]]]]]![[[[[[[",
"[[[[[[(]]]]]]]]((^VgsspssssssssssssssssspssgV^((]]]]]]]]([[[[[[[",
"[[[[[[(]]]]]]])(LhispssssssssssssssssssssspsihP(`]]]]]]]([[[[[[[",
"[[[[[[(]]]]]]((VistssssssssssssssssssssssssstsiC((]]]]]]([[[[[[[",
"[[[[[[(]]]]](^csipssssssssssssssssssssssssssspisc^(]]]]]([[[[[[[",
"[[[[[[(]]]]]EjiasssssssssssssssssssssssssssssssaikE]]]]]([[[[[[[",
"[[[[[[(]]]]^litssssssssssssssssssssssssssssssssstil^]]]]([[[[[[[",
"[[[[[[(]]](bitssssssssssssssssssssssssssssssssssstiv(]]]([[[[[[[",
"[[[[[[(]](CitssssssssssssssssssssssssssssssssssssspiC(]]([[[[[[[",
"[[[[[[(]]UgtssssssssssssssssssssssssssssssssssssssstgU]]([[[[[[[",
"[[[[[[(](xtpsssssssssssssssssssssssssssssssssssssssptz(]([[[[[[[",
"[[[[[[!)ZstssssssssssssssssssssssssssssssssssssssssstsZ)![[[[[[[",
"[[[[[[Q^ktssssssssssssssssssssssssssssssssssssssssssstk^Q[[[[[[[",
"[[[[[[[AstssssssssssssssssssssssssssssssssssssssssssstsA[[[[[[[[",
"[[[[[[[jppsssssssssssssssssssssssssssssssssssssssssssppk[[[[[[[[",
"[[[[[[[rsssssssssssssssstttttttttttttttssssssssssssssssr[[[[[[[[",
"[[[[[[[[isssssssssssstttt862@+++++@268ttttssssssssssssi[[[[[[[[[",
"[[[[[[[[iasssssssssttw72=+++++++++++++*27wttssssssssssu[[[[[[[[[",
"[[[[[[[[[itssssssttw4+++++++++++++++++++++4wttsssssssy[[[[[[[[[[",
"[[[[[[[[[rissssstw4+++++++++++++++++++++++++6ttsssssir[[[[[[[[[[",
"[[[[[[[[[[ytsstt8-+++++++++++++++++++++++++++-8ttssti[[[[[[[[[[[",
"[[[[[[[[[[[tstt5++ +++++++++++++++++++++++++ ++4tyst[[[[[[[[[[[[",
"[[[[[[[[[[[0ie2+++++++++++++++++++++++++++++++++2eiq[[[[[[[[[[[[",
"[[[[[[[[[[[[94+ +++++++++++++++++++++++++++++++ +3e[[[[[[[[[[[[[",
"[[[[[[[[[[[[[%++++++++++++++++++++++++++++++++++o@[[[[[[[[[[[[[[",
"[[[[[[[[[[[[[[@+++++++++++++++++++++++++++++++++@[[[[[[[[[[[[[[[",
"[[[[[[[[[[[[[[[%++.+++++++++++++++++++++++++.++#[[[[[[[[[[[[[[[[",
"[[[[[[[[[[[[[[[[[%+++++++++++++++++++++++++++@[[[[[[[[[[[[[[[[[[",
"[[[[[[[[[[[[[[[[[[;+oX+++++++++++++++++++X++>[[[[[[[[[[[[[[[[[[[",
"[[[[[[[[[[[[[[[[[[[[&X++o+++++++++++++o+oX%[[[[[[[[[[[[[[[[[[[[[",
"[[[[[[[[[[[[[[[[[[[[[[%<o++++++O++++++o,:[[[[[[[[[[[[[[[[[[[[[[[",
"[[[[[[[[[[[[[[[[[[[[[[[[[%211$o.o$112@[[[[[[[[[[[[[[[[[[[[[[[[[[",
"[[[[[[[[[[[[[[[[[[[[[[[[[[[[[[[[[[[[[[[[[[[[[[[[[[[[[[[[[[[[[[[[",
"[[[[[[[[[[[[[[[[[[[[[[[[[[[[[[[[[[[[[[[[[[[[[[[[[[[[[[[[[[[[[[[[",
"[[[[[[[[[[[[[[[[[[[[[[[[[[[[[[[[[[[[[[[[[[[[[[[[[[[[[[[[[[[[[[[[",
"[[[[[[[[[[[[[[[[[[[[[[[[[[[[[[[[[[[[[[[[[[[[[[[[[[[[[[[[[[[[[[[[",
"[[[[[[[[[[[[[[[[[[[[[[[[[[[[[[[[[[[[[[[[[[[[[[[[[[[[[[[[[[[[[[[["
};
