/* XPM */
static char *result[] = {
/* columns rows colors chars-per-pixel */
"64 64 173 2 ",
"   c #2B1D15",
".  c #38261B",
"X  c #3A281C",
"o  c #3B281D",
"O  c #442F22",
"+  c #463023",
"@  c #483124",
"#  c #493224",
"$  c #4B3325",
"%  c #4B3425",
"&  c #4C3425",
"*  c #4C3426",
"=  c #4D3426",
"-  c #4D3526",
";  c #4E3527",
":  c #4F3627",
">  c #4B3F23",
",  c #4D3B25",
"<  c #4E3826",
"1  c #4F3827",
"2  c #4F3628",
"3  c #513627",
"4  c #503628",
"5  c #503728",
"6  c #513728",
"7  c #523828",
"8  c #523829",
"9  c #533929",
"0  c #543929",
"q  c #553A2A",
"w  c #563A2B",
"e  c #563B2B",
"r  c #573C2B",
"t  c #583C2B",
"y  c #583C2C",
"u  c #583D2C",
"i  c #5A3E2C",
"p  c #5A3E2D",
"a  c #5B3E2D",
"s  c #5C3F2E",
"d  c #3D5715",
"f  c #3A5D12",
"g  c #3B5E12",
"h  c #3E5815",
"j  c #3D5A15",
"k  c #36630E",
"l  c #36630F",
"z  c #37630F",
"x  c #36640E",
"c  c #37640E",
"v  c #36650E",
"b  c #37650E",
"n  c #37640F",
"m  c #37650F",
"M  c #38640F",
"N  c #38650F",
"B  c #39650F",
"V  c #38670E",
"C  c #38660F",
"Z  c #38670F",
"A  c #39670F",
"S  c #39680E",
"D  c #39680F",
"F  c #39690F",
"G  c #3A690F",
"H  c #3A6A0F",
"J  c #3A6B0F",
"K  c #3B6B0F",
"L  c #3B6C0F",
"P  c #3B6D0F",
"I  c #3C6D0F",
"U  c #396010",
"Y  c #386210",
"T  c #3A6211",
"R  c #396410",
"E  c #3B6C10",
"W  c #3C6D10",
"Q  c #3C6E10",
"!  c #3D6F10",
"~  c #3D7010",
"^  c #3E7010",
"/  c #3E7110",
"(  c #3E7111",
")  c #3E7210",
"_  c #3F7310",
"`  c #3F7211",
"'  c #3F7311",
"]  c #3F7411",
"[  c #47451F",
"{  c #47461F",
"}  c #434E1A",
"|  c #44491D",
" . c #407411",
".. c #407511",
"X. c #417511",
"o. c #407611",
"O. c #417611",
"+. c #417711",
"@. c #427711",
"#. c #417712",
"$. c #427811",
"%. c #427911",
"&. c #427812",
"*. c #427912",
"=. c #437912",
"-. c #437A12",
";. c #437B12",
":. c #447B12",
">. c #447C12",
",. c #457C12",
"<. c #447D12",
"1. c #457D12",
"2. c #447C13",
"3. c #457C13",
"4. c #447D13",
"5. c #457D13",
"6. c #467D13",
"7. c #467E13",
"8. c #467D14",
"9. c #467E14",
"0. c #477E14",
"q. c #487E14",
"w. c #487F15",
"e. c #497F15",
"r. c #494221",
"t. c #484420",
"y. c #5C402E",
"u. c #5D402E",
"i. c #5E402E",
"p. c #5E412F",
"a. c #5F412F",
"s. c #60422F",
"d. c #604230",
"f. c #614230",
"g. c #614330",
"h. c #624331",
"j. c #624431",
"k. c #634431",
"l. c #634432",
"z. c #634532",
"x. c #644431",
"c. c #644531",
"v. c #644532",
"b. c #4A8016",
"n. c #4B8116",
"m. c #4B8117",
"M. c #4C8117",
"N. c #4D8218",
"B. c #4E8218",
"V. c #4E8318",
"C. c #4E8319",
"Z. c #52851B",
"A. c #54861D",
"S. c #54871D",
"D. c #55871D",
"F. c #56881E",
"G. c #57881E",
"H. c #57881F",
"J. c #57891F",
"K. c #588920",
"L. c #598A20",
"P. c #5A8A21",
"I. c #5B8B22",
"U. c #5D8C23",
"Y. c #5F8D24",
"T. c #608E25",
"R. c #618F25",
"E. c #618F26",
"W. c #628F26",
"Q. c #629027",
"!. c #639027",
"~. c #649128",
"^. c None",
/* pixels */
"^.^.^.^.^.^.^.^.^.^.^.^.^.^.^.^.^.^.^.^.^.^.^.^.^.^.^.^.^.^.^.^.^.^.^.^.^.^.^.^.^.^.^.^.^.^.^.^.^.^.^.^.^.^.^.^.^.^.^.^.^.^.^.^.",
"^.^.^.^.^.^.^.^.^.^.^.^.^.^.^.^.^.^.^.^.^.^.^.^.^.^.^.^.^.^.^.^.^.^.^.^.^.^.^.^.^.^.^.^.^.^.^.^.^.^.^.^.^.^.^.^.^.^.^.^.^.^.^.^.",
"^.^.^.^.^.^.^.^.^.^.^.^.^.^.^.^.^.^.^.^.^.^.^.^.^.^.^.^.^.^.^.^.^.^.^.^.^.^.^.^.^.^.^.^.^.^.^.^.^.^.^.^.^.^.^.^.^.^.^.^.^.^.^.^.",
"^.^.^.^.^.^.^.^.^.^.^.^.^.^.^.^.^.^.^.^.^.^.^.^.^.^.^.^.^.^.^.^.^.^.^.^.^.^.^.^.^.^.^.^.^.^.^.^.^.^.^.^.^.^.^.^.^.^.^.^.^.^.^.^.",
"^.^.^.^.^.^.^.^.^.^.^.^.^.^.^.^.^.^.^.^.^.^.^.^.^.^.^.^.^.^.^.^.^.^.^.^.^.^.^.^.^.^.^.^.^.^.^.^.^.^.^.^.^.^.^.^.^.^.^.^.^.^.^.^.",
"^.^.^.^.^.^.^.^.^.^.^.^.^.^.^.^.^.^.^.^.^.^.^.^.^.^.^.^.^.^.^.^.^.^.^.^.^.^.^.^.^.^.^.^.^.^.^.^.^.^.^.^.^.^.^.^.^.^.^.^.^.^.^.^.",
"^.^.^.^.^.^.^.^.^.^.^.^.^.^.^.^.^.^.^.^.^.^.^.^.^.^.^.^.^.^.^.^.^.^.^.^.^.^.^.^.^.^.^.^.^.^.^.^.^.^.^.^.^.^.^.^.^.^.^.^.^.^.^.^.",
"^.^.^.^.^.^.^.^.^.^.^.^.^.^.^.^.^.^.^.^.^.^.^.^.^.^.^.^.^.^.^.^.^.^.^.^.^.^.^.^.^.^.^.^.^.^.^.^.^.^.^.^.^.^.^.^.^.^.^.^.^.^.^.^.",
"^.^.^.^.^.^.^.^.^.^.^.^.^.^.^.^.^.^.^.^.^.^.^.^.^.^.^.^.^.^.^.^.^.^.^.^.^.^.^.^.^.^.^.^.^.^.^.^.^.^.^.^.^.^.^.^.^.^.^.^.^.^.^.^.",
"^.^.^.^.^.^.^.^.^.^.^.^.^.^.^.^.^.^.^.^.^.^.^.^.^.^.^.^.>.>.>.,.>.>.>.^.^.^.^.^.^.^.^.^.^.^.^.^.^.^.^.^.^.^.^.^.^.^.^.^.^.^.^.^.",
"^.^.^.^.^.^.^.^.^.^.^.^.^.^.^.^.^.^.^.^.^.^.^.^.^.^.>.>.>.>.>.>.5.5.<.2.>.^.^.^.^.^.^.^.^.^.^.^.^.^.^.^.^.^.^.^.^.^.^.^.^.^.^.^.",
"^.^.^.^.^.^.^.^.^.^.^.^.^.^.^.^.^.^.^.^.^.^.^.^.>.>.>.b.D.F.V.6.>.5.5.5.5.>.%.^.^.^.^.^.^.^.^.^.^.^.^.^.^.^.^.^.^.^.^.^.^.^.^.^.",
"^.^.^.^.^.^.^.^.^.^.^.^.^.^.^.^.^.^.^.^.^.^.^.>.>.>.C.T.~.Q.L.n.>.4.5.5.5.5.>.*.^.^.^.^.^.^.^.^.^.^.^.^.^.^.^.^.^.^.^.^.^.^.^.^.",
"^.^.^.^.^.^.^.^.^.^.^.^.^.^.^.^.^.^.^.^.^.>.>.>.>.b.Y.~.Y.C.6.5.>.>.5.5.5.5.5.5.@.K ^.^.^.^.^.^.^.^.^.^.^.^.^.^.^.^.^.^.^.^.^.^.",
"^.^.^.^.^.^.^.^.^.^.^.^.^.^.^.^.^.^.^.^.>.6.M.N.e.J.~.R.N.>.>.4.>.>.5.5.5.5.5.5.5.O.H ^.^.^.^.^.^.^.^.^.^.^.^.^.^.^.^.^.^.^.^.^.",
"^.^.^.^.^.^.^.^.^.^.^.^.^.^.^.^.^.^.^.>.w.K.W.!.U.Y.!.S.5.>.5.5.>.>.5.5.5.5.5.5.5.1. .V ^.^.^.^.^.^.^.^.^.^.^.^.^.^.^.^.^.^.^.^.",
"^.^.^.^.^.^.^.^.^.^.^.^.^.^.^.^.^.^.^.0.L.~.!.H.m.m.K.b.>.5.5.5.<.<.<.5.5.5.5.5.5.5.>./ ^.^.^.^.^.^.^.^.^.^.^.^.^.^.^.^.^.^.^.^.",
"^.^.^.^.^.^.^.^.^.^.^.^.^.^.^.^.^.^.>.Z.!.!.A.5.>.>.q.5.>.5.5.5.>.>.<.5.5.5.5.5.5.3.5.-.K ^.^.^.^.^.^.^.^.^.^.^.^.^.^.^.^.^.^.^.",
"^.^.^.^.^.^.^.^.^.^.^.^.^.^.^.^.^.>.0.U.~.L.6.>.5.5.>.>.5.>.>.>.>.>.5.5.5.5.5.5.5.5.5.5.+.Z ^.^.^.^.^.^.^.^.^.^.^.^.^.^.^.^.^.^.",
"^.^.^.^.^.^.^.^.^.^.^.^.^.^.^.^.>.>.M.E.!.D.w.1.>.5.5.>.>.>.>.>.>.5.5.5.5.5.5.5.5.5.5.5.>.^ b ^.^.^.^.^.^.^.^.^.^.^.^.^.^.^.^.^.",
"^.^.^.^.^.^.^.^.^.^.^.^.^.^.^.^.>.>.B.E.!.!.I.m.>.2.>.>.>.>.<.5.5.5.5.5.5.5.5.5.5.5.5.5.5.-.G ^.^.^.^.^.^.^.^.^.^.^.^.^.^.^.^.^.",
"^.^.^.^.^.^.^.^.^.^.^.^.^.^.^.>.>.0.L.~.Q.H.M.0.>.>.>.>.5.5.5.5.5.5.5.5.5.5.5.5.5.5.5.5.5.5.` b ^.^.^.^.^.^.^.^.^.^.^.^.^.^.^.^.",
"^.^.^.^.^.^.^.^.^.^.^.^.^.^.^.>.>.Z.!.!.A.5.>.>.>.>.>.1.5.5.5.5.5.5.5.5.5.5.5.5.5.5.5.5.5.5.;.H ^.^.^.^.^.^.^.^.^.^.^.^.^.^.^.^.",
"^.^.^.^.^.^.^.^.^.^.^.^.^.^.>.>.0.U.~.P.9.>.5.5.>.>.5.5.5.5.5.5.5.5.5.5.5.5.5.5.5.5.5.5.5.5.5.' c ^.^.^.^.^.^.^.^.^.^.^.^.^.^.^.",
"^.^.^.^.^.^.^.^.^.^.^.^.^.^.>.>.M.W.W.N.>.5.5.5.5.>.>.5.5.5.5.5.5.5.5.5.5.5.5.5.5.5.5.5.5.5.5.-.D ^.^.^.^.^.^.^.^.^.^.^.^.^.^.^.",
"^.^.^.^.^.^.^.^.^.^.^.^.^.>.5.>.M.W.U.0.>.5.5.5.>.>.>.5.5.5.5.5.5.5.5.5.5.5.5.5.5.5.5.5.5.5.5.>.! k ^.^.^.^.^.^.^.^.^.^.^.^.^.^.",
"^.^.^.^.^.^.^.^.^.^.^.^.^.>.5.>.6.G.P.8.>.5.5.>.>.>.5.5.5.5.5.5.5.5.5.5.5.5.5.5.5.5.5.5.5.5.5.5.O.m ^.^.^.^.^.^.^.^.^.^.^.^.^.^.",
"^.^.^.^.^.^.^.^.^.^.^.^.>.1.5.5.>.7.N.7.>.>.>.>.>.1.5.5.5.5.5.5.5.5.5.5.5.5.5.5.5.5.5.5.5.5.5.5.;.G x ^.^.^.^.^.^.^.^.^.^.^.^.^.",
"^.^.^.^.^.^.^.^.^.^.^.^.>.5.5.5.5.>.>.1.>.>.>.>.3.5.5.5.5.5.5.5.5.5.5.5.5.5.5.5.5.5.5.5.5.>.>.>.:.! k ^.^.^.^.^.^.^.^.^.^.^.^.^.",
"^.^.^.^.^.^.^.^.^.^.^.^.>.5.5.5.5.5.5.3.5.5.5.5.5.5.5.5.5.5.5.5.5.5.5.5.5.5.5.5.5.5.5.5.>.>.>.:._ Q c ^.^.^.^.^.^.^.^.^.^.^.^.^.",
"^.^.^.^.^.^.^.^.^.^.^.>.>.5.5.5.5.5.5.5.5.5.5.5.5.5.5.5.5.5.5.5.5.5.5.5.5.5.5.5.5.5.5.>.>.<.5.5.+.Z x x ^.^.^.^.^.^.^.^.^.^.^.^.",
"^.^.^.^.^.^.^.^.^.^.^.>.5.5.5.5.5.5.5.5.5.5.5.5.5.5.5.5.5.5.5.5.5.5.5.5.5.5.5.5.5.5.<.>.>.5.5.5.>.E k c ^.^.^.^.^.^.^.^.^.^.^.^.",
"^.^.^.^.^.^.^.^.^.^.^.2.5.5.5.5.5.5.5.5.5.5.5.5.5.5.5.5.5.5.5.5.5.5.5.5.5.5.5.5.5.5.>.>.5.5.5.5.5.` c x ^.^.^.^.^.^.^.^.^.^.^.^.",
"^.^.^.^.^.^.^.^.^.^.^.>.5.5.5.5.5.5.5.5.5.5.5.5.5.5.5.5.5.5.5.5.5.5.5.5.5.5.5.5.5.5.>.>.5.5.3.5.5.! k x ^.^.^.^.^.^.^.^.^.^.^.^.",
"^.^.^.^.^.^.^.^.^.^.^.>.5.5.5.5.5.5.5.5.5.5.5.5.5.5.5.5.5.5.5.5.5.5.5.5.5.5.5.5.,.>.>.<.5.5.5.>...C k x ^.^.^.^.^.^.^.^.^.^.^.^.",
"^.^.^.^.^.^.^.^.^.^.^.>.5.5.5.5.5.5.5.5.5.5.5.5.5.5.5.5.5.5.5.5.5.5.5.5.5.5.5.>.>.>.>.$.O.O. .W m k x x ^.^.^.^.^.^.^.^.^.^.^.^.",
"^.^.^.^.^.^.^.^.^.^.^.>.>.5.5.5.5.5.5.5.5.5.5.5.5.5.5.5.5.5.5.5.5.<.>.>.1.5.,.>.>.<.5.-.P b m m m x k x ^.^.^.^.^.^.^.^.^.^.^.^.",
"^.^.^.^.^.^.^.^.^.^.^.^.>.5.5.5.5.5.5.5.5.5.5.5.5.5.5.5.5.5.5.5.>.>.>.-.O.:.>.>.5.5.3.5.#.C ~ +.E x x ^.^.^.^.^.^.^.^.^.^.^.^.^.",
"^.^.^.^.^.^.^.^.^.^.^.^.>.2.5.5.5.5.5.5.5.5.5.5.5.5.5.5.5.5.5.>.>.>.5.>./ ~ :.>.5.5.5.5.;.D K  .C k x ^.^.^.^.^.^.^.^.^.^.^.^.^.",
"^.^.^.^.^.^.^.^.^.^.^.^.^.>.4.5.5.5.5.5.5.5.5.5.5.5.5.5.5.5.<.>.>.5.5.5.=.F _ 1.5.5.5.5.=.A c C l c ^.^.^.^.^.^.^.^.^.^.^.^.^.^.",
"^.^.^.^.^.^.^.^.^.^.^.^.^.^.>.5.5.5.5.5.5.5.5.5.5.5.5.5.5.5.>.>.<.5.5.5.>.W D -.5.5.5.-.Q n x x x ^.^.^.^.^.^.^.^.^.^.^.^.^.^.^.",
"^.^.^.^.^.^.^.^.^.^.^.^.^.^.^.>.5.5.5.5.5.5.5.5.5.5.5.5.5.5.>.>.5.5.5.5.>.Q c ~ O.X.( H n k x x ^.^.^.^.^.^.^.^.^.^.^.^.^.^.^.^.",
"^.^.^.^.^.^.^.^.^.^.^.^.^.^.^.^.:.>.5.5.3.5.5.5.5.5.5.5.5.5.>.1.5.5.5.5.@.A k L I Z c k x x x ^.^.^.^.^.^.^.^.^.^.^.^.^.^.^.^.^.",
"^.^.^.^.^.^.^.^.^.^.^.^.^.^.^.^.^...$.:.5.5.5.5.5.5.5.5.5.5.>.-.-.:.*.' D k C ..O.J c x x x ^.^.^.^.^.^.^.^.^.^.^.^.^.^.^.^.^.^.",
"^.^.^.^.^.^.^.^.^.^.^.^.^.^.^.^.^.^.^.Q ' &.:.5.5.5.5.5.5.5.<.O.W G Z n k c F H N z x x ^.^.^.^.^.^.^.^.^.^.^.^.^.^.^.^.^.^.^.^.",
"^.^.^.^.^.^.^.^.^.^.^.^.^.^.^.^.^.^.^.^.^.S K ! ) o.+.&.*.-.*.&.] P Z b x v x l k x ^.^.^.^.^.^.^.^.^.^.^.^.^.^.^.^.^.^.^.^.^.^.",
"^.^.^.^.^.^.^.^.^.^.^.^.^.^.^.^.^.^.^.^.^.^.^.^.j h g T R B C C N M Y U f d } | ^.^.^.^.^.^.^.^.^.^.^.^.^.^.^.^.^.^.^.^.^.^.^.^.",
"^.^.^.^.^.^.^.^.^.^.^.^.^.^.^.^.^.^.^.^.^.^.^.^.^.1 , > r.t.[ { [ t.r.> , < 4 w ^.^.^.^.^.^.^.^.^.^.^.^.^.^.^.^.^.^.^.^.^.^.^.^.",
"^.^.^.^.^.^.^.^.^.^.^.^.^.^.^.^.^.^.^.^.^.^.^.^.a 8 4 2 4 4 4 4 4 4 4 2 4 8 p h.x.k.^.^.^.^.^.^.^.^.^.^.^.^.^.^.^.^.^.^.^.^.^.^.",
"^.^.^.^.^.^.^.^.^.^.^.^.^.^.^.^.^.^.^.^.^.^.^.k.k.d.a q 8 6 5 5 5 6 8 q a f.c.v.z.v.k.k.^.^.^.^.^.^.^.^.^.^.^.^.^.^.^.^.^.^.^.^.",
"^.^.^.^.^.^.^.^.^.^.^.^.^.^.^.^.^.^.^.^.^.k.k.v.v.v.v.k.g.a.u.u.u.a.g.k.v.v.v.v.v.v.v.x.k.g.^.^.^.^.^.^.^.^.^.^.^.^.^.^.^.^.^.^.",
"^.^.^.^.^.^.^.^.^.^.^.^.^.^.^.^.^.^.k.k.k.z.v.v.v.v.v.v.v.v.v.v.v.v.v.v.v.v.v.v.v.v.v.v.v.k.r 3 ^.^.^.^.^.^.^.^.^.^.^.^.^.^.^.^.",
"^.^.^.^.^.^.^.^.^.^.^.^.^.^.^.^.c.v.v.v.v.v.v.v.v.v.v.v.v.v.v.v.v.v.v.v.k.h.a.u.y.u.u.u.s r 6 5 ^.^.^.^.^.^.^.^.^.^.^.^.^.^.^.^.",
"^.^.^.^.^.^.^.^.^.^.^.^.^.^.^.s s a u r r i p.j.v.v.v.v.v.v.v.v.v.v.v.d.y 9 6 5 : - * * = - * : ^.^.^.^.^.^.^.^.^.^.^.^.^.^.^.^.",
"^.^.^.^.^.^.^.^.^.^.^.^.^.^.^.^.5 ; & % # O + 5 u.v.v.k.v.v.v.v.v.v.p.9 : : @ o   ^.^.^.^.^.^.^.^.^.^.^.^.^.^.^.^.^.^.^.^.^.^.^.",
"^.^.^.^.^.^.^.^.^.^.^.^.^.^.^.^.^.^.^.^.^.^.^.^.^.$ d.v.l.v.v.l.v.g.0 : ; . ^.^.^.^.^.^.^.^.^.^.^.^.^.^.^.^.^.^.^.^.^.^.^.^.^.^.",
"^.^.^.^.^.^.^.^.^.^.^.^.^.^.^.^.^.^.^.^.^.^.^.^.^.^.X d.v.v.v.v.k.t 5 : . ^.^.^.^.^.^.^.^.^.^.^.^.^.^.^.^.^.^.^.^.^.^.^.^.^.^.^.",
"^.^.^.^.^.^.^.^.^.^.^.^.^.^.^.^.^.^.^.^.^.^.^.^.^.^.^.+ s.g.g.i.e 5 5 + ^.^.^.^.^.^.^.^.^.^.^.^.^.^.^.^.^.^.^.^.^.^.^.^.^.^.^.^.",
"^.^.^.^.^.^.^.^.^.^.^.^.^.^.^.^.^.^.^.^.^.^.^.^.^.^.^.^.7 9 7 5 : 5 6 ^.^.^.^.^.^.^.^.^.^.^.^.^.^.^.^.^.^.^.^.^.^.^.^.^.^.^.^.^.",
"^.^.^.^.^.^.^.^.^.^.^.^.^.^.^.^.^.^.^.^.^.^.^.^.^.^.^.^.^.^.^.^.^.^.^.^.^.^.^.^.^.^.^.^.^.^.^.^.^.^.^.^.^.^.^.^.^.^.^.^.^.^.^.^.",
"^.^.^.^.^.^.^.^.^.^.^.^.^.^.^.^.^.^.^.^.^.^.^.^.^.^.^.^.^.^.^.^.^.^.^.^.^.^.^.^.^.^.^.^.^.^.^.^.^.^.^.^.^.^.^.^.^.^.^.^.^.^.^.^.",
"^.^.^.^.^.^.^.^.^.^.^.^.^.^.^.^.^.^.^.^.^.^.^.^.^.^.^.^.^.^.^.^.^.^.^.^.^.^.^.^.^.^.^.^.^.^.^.^.^.^.^.^.^.^.^.^.^.^.^.^.^.^.^.^.",
"^.^.^.^.^.^.^.^.^.^.^.^.^.^.^.^.^.^.^.^.^.^.^.^.^.^.^.^.^.^.^.^.^.^.^.^.^.^.^.^.^.^.^.^.^.^.^.^.^.^.^.^.^.^.^.^.^.^.^.^.^.^.^.^.",
"^.^.^.^.^.^.^.^.^.^.^.^.^.^.^.^.^.^.^.^.^.^.^.^.^.^.^.^.^.^.^.^.^.^.^.^.^.^.^.^.^.^.^.^.^.^.^.^.^.^.^.^.^.^.^.^.^.^.^.^.^.^.^.^."
};
